HIERARCHY
ROOT hip
{
  OFFSET 0 0 0
  CHANNELS 6 Xposition Yposition Zposition Zrotation Yrotation Xrotation
  JOINT abdomen
  {
    OFFSET 0 20.6881 -0.73152
    CHANNELS 3 Zrotation Xrotation Yrotation
    JOINT chest
    {
      OFFSET 0 11.7043 -0.48768
      CHANNELS 3 Zrotation Xrotation Yrotation
      JOINT neck
      {
        OFFSET 0 22.1894 -2.19456
        CHANNELS 3 Zrotation Xrotation Yrotation
        JOINT head
        {
          OFFSET -0.24384 7.07133 1.2192
          CHANNELS 3 Zrotation Xrotation Yrotation
          JOINT leftEye
          {
            OFFSET 4.14528 8.04674 8.04672
            CHANNELS 3 Zrotation Xrotation Yrotation
            End Site
            {
              OFFSET 1 0 0
            }
          }
          JOINT rightEye
          {
            OFFSET -3.6576 8.04674 8.04672
            CHANNELS 3 Zrotation Xrotation Yrotation
            End Site
            {
              OFFSET 1 0 0
            }
          }
        }
      }
      JOINT rCollar
      {
        OFFSET -2.68224 19.2634 -4.8768
        CHANNELS 3 Zrotation Xrotation Yrotation
        JOINT rShldr
        {
          OFFSET -8.77824 -1.95073 1.46304
          CHANNELS 3 Zrotation Xrotation Yrotation
          JOINT rForeArm
          {
            OFFSET -28.1742 -1.7115 0.48768
            CHANNELS 3 Zrotation Xrotation Yrotation
            JOINT rHand
            {
              OFFSET -22.5879 0.773209 7.07136
              CHANNELS 3 Zrotation Xrotation Yrotation
              JOINT rThumb1
              {
                OFFSET -1.2192 -0.487915 3.41376
                CHANNELS 3 Zrotation Xrotation Yrotation
                JOINT rThumb2
                {
                  OFFSET -3.37035 -0.52449 3.41376
                  CHANNELS 3 Zrotation Xrotation Yrotation
                  End Site
                  {
                    OFFSET -1.78271 -1.18214 1.43049
                  }
                }
              }
              JOINT rIndex1
              {
                OFFSET -7.75947 0.938293 5.60832
                CHANNELS 3 Zrotation Xrotation Yrotation
                JOINT rIndex2
                {
                  OFFSET -2.54057 -0.884171 1.56538
                  CHANNELS 3 Zrotation Xrotation Yrotation
                  End Site
                  {
                    OFFSET -1.62519 -0.234802 1.16502
                  }
                }
              }
              JOINT rMid1
              {
                OFFSET -8.24714 1.18213 3.41376
                CHANNELS 3 Zrotation Xrotation Yrotation
                JOINT rMid2
                {
                  OFFSET -3.10165 -0.590103 1.0647
                  CHANNELS 3 Zrotation Xrotation Yrotation
                  End Site
                  {
                    OFFSET -2.48547 -0.328903 0.83742
                  }
                }
              }
              JOINT rRing1
              {
                OFFSET -8.82822 0.546677 1.51678
                CHANNELS 3 Zrotation Xrotation Yrotation
                JOINT rRing2
                {
                  OFFSET -2.60934 -0.819778 -0.0198488
                  CHANNELS 3 Zrotation Xrotation Yrotation
                  End Site
                  {
                    OFFSET -2.33842 -0.294052 0.168128
                  }
                }
              }
              JOINT rPinky1
              {
                OFFSET -8.27202 -0.0477905 -0.4584
                CHANNELS 3 Zrotation Xrotation Yrotation
                JOINT rPinky2
                {
                  OFFSET -1.82734 -0.647385 -0.700984
                  CHANNELS 3 Zrotation Xrotation Yrotation
                  End Site
                  {
                    OFFSET -1.69225 -0.51767 -0.607171
                  }
                }
              }
            }
          }
        }
      }
      JOINT lCollar
      {
        OFFSET 2.68224 19.2634 -4.8768
        CHANNELS 3 Zrotation Xrotation Yrotation
        JOINT lShldr
        {
          OFFSET 8.77824 -1.95073 1.46304
          CHANNELS 3 Zrotation Xrotation Yrotation
          JOINT lForeArm
          {
            OFFSET 28.1742 -1.7115 0.48768
            CHANNELS 3 Zrotation Xrotation Yrotation
            JOINT lHand
            {
              OFFSET 22.5879 0.773209 7.07136
              CHANNELS 3 Zrotation Xrotation Yrotation
              JOINT lThumb1
              {
                OFFSET 1.2192 -0.487915 3.41376
                CHANNELS 3 Zrotation Xrotation Yrotation
                JOINT lThumb2
                {
                  OFFSET 3.37035 -0.52449 3.41376
                  CHANNELS 3 Zrotation Xrotation Yrotation
                  End Site
                  {
                    OFFSET 1.78271 -1.18214 1.43049
                  }
                }
              }
              JOINT lIndex1
              {
                OFFSET 7.75947 0.938293 5.60832
                CHANNELS 3 Zrotation Xrotation Yrotation
                JOINT lIndex2
                {
                  OFFSET 2.54057 -0.884171 1.56538
                  CHANNELS 3 Zrotation Xrotation Yrotation
                  End Site
                  {
                    OFFSET 1.62519 -0.234802 1.16502
                  }
                }
              }
              JOINT lMid1
              {
                OFFSET 8.24714 1.18213 3.41376
                CHANNELS 3 Zrotation Xrotation Yrotation
                JOINT lMid2
                {
                  OFFSET 3.10165 -0.590103 1.0647
                  CHANNELS 3 Zrotation Xrotation Yrotation
                  End Site
                  {
                    OFFSET 2.48547 -0.328903 0.83742
                  }
                }
              }
              JOINT lRing1
              {
                OFFSET 8.82822 0.546677 1.51678
                CHANNELS 3 Zrotation Xrotation Yrotation
                JOINT lRing2
                {
                  OFFSET 2.60934 -0.819778 -0.0198488
                  CHANNELS 3 Zrotation Xrotation Yrotation
                  End Site
                  {
                    OFFSET 2.33842 -0.294052 0.168128
                  }
                }
              }
              JOINT lPinky1
              {
                OFFSET 8.27202 -0.0477905 -0.4584
                CHANNELS 3 Zrotation Xrotation Yrotation
                JOINT lPinky2
                {
                  OFFSET 1.82734 -0.647385 -0.700984
                  CHANNELS 3 Zrotation Xrotation Yrotation
                  End Site
                  {
                    OFFSET 1.69225 -0.51767 -0.607171
                  }
                }
              }
            }
          }
        }
      }
    }
  }
  JOINT rButtock
  {
    OFFSET -8.77824 4.35084 1.2192
    CHANNELS 3 Zrotation Xrotation Yrotation
    JOINT rThigh
    {
      OFFSET 0 -1.70687 -2.19456
      CHANNELS 3 Zrotation Xrotation Yrotation
      JOINT rShin
      {
        OFFSET 0 -36.8199 0.73152
        CHANNELS 3 Zrotation Xrotation Yrotation
        JOINT rFoot
        {
          OFFSET 0.73152 -45.1104 -5.12064
          CHANNELS 3 Zrotation Xrotation Yrotation
          End Site
          {
            OFFSET -1.1221 -3.69964 12.103
          }
        }
      }
    }
  }
  JOINT lButtock
  {
    OFFSET 8.77824 4.35084 1.2192
    CHANNELS 3 Zrotation Xrotation Yrotation
    JOINT lThigh
    {
      OFFSET 0 -1.70687 -2.19456
      CHANNELS 3 Zrotation Xrotation Yrotation
      JOINT lShin
      {
        OFFSET 0 -36.8199 0.73152
        CHANNELS 3 Zrotation Xrotation Yrotation
        JOINT lFoot
        {
          OFFSET -0.73152 -45.1104 -5.12064
          CHANNELS 3 Zrotation Xrotation Yrotation
          End Site
          {
            OFFSET 1.1221 -3.69964 12.103
          }
        }
      }
    }
  }
}
MOTION
Frames:	7
Frame Time:	0.00833333
51.9005 85.1388 192.831 0.0 0.0 0.0 0.41059 -0.00336424 0.0117806 0.113459 -0.00539519 0.0196593 6.96097e-15 0.0 -1.86361e-17 2.08941e-14 3.18055e-15 -5.90142e-17 -0.0 0.0 0.0 -0.0 0.0 0.0 3.577e-15 1.51418e-17 1.49089e-16 7.59241e-14 3.10601e-16 7.95139e-16 1.26805e-12 -3.67354e-13 2.22639e-14 1.44888e-11 4.29698e-13 -4.77083e-14 3.41768e-11 1.32763e-13 -5.08889e-14 5.90156e-11 2.25819e-13 -8.50798e-14 3.41818e-11 1.34378e-13 -6.04305e-14 7.73091 5.47488 0.417314 3.41764e-11 1.32888e-13 -5.08889e-14 2.90554 0.965183 0.102902 3.41845e-11 1.33086e-13 -5.00937e-14 10.2786 0.731801 0.0259123 3.41737e-11 1.33186e-13 -4.13472e-14 2.22167 -0.733487 -0.20892 3.48008e-15 1.55301e-17 -1.49089e-16 7.20121e-14 1.05604e-16 -7.95139e-16 1.26139e-12 3.88823e-13 -3.18055e-14 1.44884e-11 -3.32467e-13 6.36111e-15 3.41706e-11 1.23864e-13 -5.08889e-14 5.90216e-11 2.13097e-13 -8.5875e-14 3.41695e-11 1.24439e-13 -4.13472e-14 -7.73091 5.47488 -0.417314 3.41717e-11 1.23545e-13 -5.725e-14 -2.90554 0.965183 -0.102902 3.41651e-11 1.24042e-13 -5.00937e-14 -10.2786 0.731801 -0.0259123 3.41784e-11 1.26427e-13 -6.04305e-14 -2.22167 -0.733487 0.20892 -2.03217e-16 0.0 -3.88251e-19 0.770611 -4.17183 -0.0656818 -0.00265491 2.00555 -0.0182707 -0.461836 2.16687 0.0961017 2.03217e-16 0.0 3.88251e-19 -0.143229 -2.55995 0.0260683 0.00716316 -0.91409 0.0621715 0.453767 3.47457 -0.121224
52.3619 83.5599 186.399 178.752 2.3195 -157.041 -0.865754 -7.82249 -0.299229 0.841121 3.58227 0.026255 -0.572102 4.23009 -1.17638 2.7574 -12.1639 -1.0821 -0.0 0.0 0.0 -0.0 0.0 0.0 -6.05861e-16 1.71938e-14 8.33964e-16 22.9438 2.73797 -0.0518017 -4.27821 -1.9556 6.66943 0.00154187 0.877198 0.123231 1.59213e-10 1.15957e-10 -1.81392e-10 2.74709e-10 2.00968e-10 -3.14173e-10 1.59221e-10 1.15958e-10 -1.81401e-10 7.73091 5.47488 0.417314 1.59212e-10 1.15958e-10 -1.81391e-10 2.90554 0.965183 0.102902 1.59221e-10 1.15959e-10 -1.81392e-10 10.2786 0.731801 0.0259123 1.59211e-10 1.15958e-10 -1.81382e-10 2.22167 -0.733487 -0.20892 -6.62985e-16 1.71937e-14 5.27634e-16 -21.3144 5.075 -1.41786 2.76509 -1.0609 -4.50835 -0.0237351 3.41906 -0.477434 -1.0227e-10 1.35845e-10 2.4298e-10 -1.74677e-10 2.37047e-10 4.21227e-10 -1.02272e-10 1.35844e-10 2.42988e-10 -7.73091 5.47488 -0.417314 -1.02269e-10 1.35843e-10 2.42975e-10 -2.90554 0.965183 -0.102902 -1.02278e-10 1.35843e-10 2.4298e-10 -10.2786 0.731801 -0.0259123 -1.02263e-10 1.35846e-10 2.42972e-10 -2.22167 -0.733487 0.20892 -2.03217e-16 0.0 -3.88251e-19 0.668316 -10.1302 2.29365 0.00590188 4.36413 0.058658 -0.693086 -4.63973 -2.01148 2.03217e-16 0.0 3.88251e-19 0.385048 -8.14505 -2.323 0.00526872 0.915483 0.0262407 0.501182 1.30347 1.08622
52.5364 83.4822 186.34 179.427 2.0239 -157.309 -2.29431 -16.0824 -0.635037 1.61147 7.37458 0.0352763 -0.982644 8.69534 -2.44521 5.12591 -25.0057 -2.40897 -0.0 0.0 0.0 -0.0 0.0 0.0 -6.74536e-15 2.91294e-14 6.33626e-16 47.2032 5.63308 -0.101123 -8.31262 -3.93687 13.7497 -0.000959514 1.81649 0.255285 3.21223e-10 1.94836e-10 -3.22111e-10 5.54477e-10 3.37816e-10 -5.58171e-10 3.21234e-10 1.94836e-10 -3.22118e-10 7.73091 5.47488 0.417314 3.21222e-10 1.94839e-10 -3.22109e-10 2.90554 0.965183 0.102902 3.21232e-10 1.94839e-10 -3.22111e-10 10.2786 0.731801 0.0259123 3.21223e-10 1.94838e-10 -3.22099e-10 2.22167 -0.733487 -0.20892 -6.76001e-15 2.91286e-14 3.13707e-16 -43.5709 10.4403 -2.9565 5.52534 -2.17009 -9.30941 0.0135894 7.03988 -0.98884 -1.9579e-10 2.86181e-10 4.55593e-10 -3.34598e-10 4.98987e-10 7.89549e-10 -1.95794e-10 2.8618e-10 4.55599e-10 -7.73091 5.47488 -0.417314 -1.9579e-10 2.86177e-10 4.55588e-10 -2.90554 0.965183 -0.102902 -1.958e-10 2.86177e-10 4.55592e-10 -10.2786 0.731801 -0.0259123 -1.95784e-10 2.8618e-10 4.55585e-10 -2.22167 -0.733487 0.20892 -2.03217e-16 0.0 -3.88251e-19 1.12368 -16.3604 4.8481 0.00785628 6.80524 0.139327 -1.47281 -11.8673 -4.23842 2.03217e-16 0.0 3.88251e-19 0.452257 -13.993 -4.89628 0.00577279 2.8321 -0.011533 0.651078 -0.986557 2.36707
52.7277 83.4858 186.122 180.023 1.1291 -158.01 -3.69244 -23.4579 -0.995147 2.29391 10.7576 0.0399954 -1.1845 12.6686 -3.60747 6.6108 -36.4329 -3.9454 -0.0 0.0 0.0 -0.0 0.0 0.0 -8.97159e-15 5.15512e-14 2.20371e-15 68.8465 8.21388 -0.156837 -11.4943 -5.54948 20.0948 -0.00670449 2.63155 0.37004 4.09285e-10 3.47606e-10 -5.44076e-10 7.06095e-10 6.02452e-10 -9.42349e-10 4.09299e-10 3.47605e-10 -5.44082e-10 7.73091 5.47488 0.417314 4.09283e-10 3.47609e-10 -5.44073e-10 2.90554 0.965183 0.102902 4.09295e-10 3.47609e-10 -5.44076e-10 10.2786 0.731801 0.0259123 4.09286e-10 3.47607e-10 -5.44063e-10 2.22167 -0.733487 -0.20892 -8.94912e-15 5.155e-14 1.88108e-15 -63.1673 15.187 -4.39053 7.79894 -3.10398 -13.543 0.102079 10.2543 -1.45296 -3.75151e-10 4.07286e-10 7.29043e-10 -6.42075e-10 7.10715e-10 1.26385e-09 -3.75156e-10 4.07284e-10 7.29047e-10 -7.73091 5.47488 -0.417314 -3.75151e-10 4.07281e-10 7.29039e-10 -2.90554 0.965183 -0.102902 -3.75163e-10 4.07281e-10 7.29041e-10 -10.2786 0.731801 -0.0259123 -3.75146e-10 4.07284e-10 7.29036e-10 -2.22167 -0.733487 0.20892 -2.03217e-16 0.0 -3.88251e-19 2.03388 -21.9023 7.44472 0.0038019 9.08123 0.214674 -2.71771 -18.1507 -6.53313 2.03217e-16 0.0 3.88251e-19 0.000372717 -19.1874 -7.36177 0.00837105 4.57463 -0.0457608 0.870474 -3.03238 3.50475
52.701 83.3644 186.484 180.303 1.6227 -157.119 -4.83394 -28.6247 -1.35349 2.75953 13.1173 0.033287 -1.24642 15.4328 -4.42827 7.14599 -44.3797 -5.35764 -0.0 0.0 0.0 -0.0 0.0 0.0 -1.41463e-15 1.00189e-13 8.19987e-15 83.9418 10.0089 -0.227535 -13.4828 -6.54459 24.5191 -0.0120771 3.13605 0.441188 3.12477e-10 6.85099e-10 -9.69156e-10 5.37336e-10 1.18655e-09 -1.67698e-09 3.12491e-10 6.85098e-10 -9.69163e-10 7.73091 5.47488 0.417314 3.12475e-10 6.85103e-10 -9.69153e-10 2.90554 0.965183 0.102902 3.12487e-10 6.85103e-10 -9.69157e-10 10.2786 0.731801 0.0259123 3.12478e-10 6.85101e-10 -9.69144e-10 2.22167 -0.733487 -0.20892 -1.36844e-15 1.00187e-13 7.90169e-15 -76.6736 18.4239 -5.43094 9.21626 -3.67854 -16.3397 0.194141 12.4556 -1.77891 -7.69114e-10 4.55315e-10 1.15459e-09 -1.31844e-09 7.96913e-10 2.0031e-09 -7.6912e-10 4.55313e-10 1.15459e-09 -7.73091 5.47488 -0.417314 -7.69115e-10 4.55309e-10 1.15458e-09 -2.90554 0.965183 -0.102902 -7.69127e-10 4.55309e-10 1.15458e-09 -10.2786 0.731801 -0.0259123 -7.69111e-10 4.55312e-10 1.15458e-09 -2.22167 -0.733487 0.20892 -2.03217e-16 0.0 -3.88251e-19 3.02859 -25.8359 9.79475 -0.002924 10.9445 0.275073 -4.0675 -22.157 -8.70371 2.03217e-16 0.0 3.88251e-19 -0.727591 -22.8638 -9.25621 0.0115173 5.88196 -0.0709337 1.06905 -4.47515 4.27685
52.7578 83.3184 186.315 180.512 0.5621 -157.821 -5.56182 -30.7079 -1.68244 2.91924 14.0443 0.00726432 -1.29389 16.5213 -4.71254 7.24064 -47.5102 -5.92773 -0.0 0.0 0.0 -0.0 0.0 0.0 2.60318e-14 1.99915e-13 2.36981e-14 89.8672 10.7374 -0.322944 -14.197 -6.88777 26.2177 -0.012817 3.14372 0.442293 -1.53033e-10 1.42436e-09 -1.83013e-09 -2.70378e-10 2.46559e-09 -3.16388e-09 -1.5302e-10 1.42436e-09 -1.83013e-09 7.73091 5.47488 0.417314 -1.53034e-10 1.42436e-09 -1.83012e-09 2.90554 0.965183 0.102902 -1.53023e-10 1.42436e-09 -1.83013e-09 10.2786 0.731801 0.0259123 -1.53031e-10 1.42436e-09 -1.83012e-09 2.22167 -0.733487 -0.20892 2.6088e-14 1.99915e-13 2.34787e-14 -81.9077 19.6189 -5.83816 9.57789 -3.79754 -17.0972 0.232572 13.1894 -1.88966 -1.63007e-09 3.70002e-10 1.9029e-09 -2.7979e-09 6.54588e-10 3.30483e-09 -1.63008e-09 3.69998e-10 1.9029e-09 -7.73091 5.47488 -0.417314 -1.63007e-09 3.69995e-10 1.90289e-09 -2.90554 0.965183 -0.102902 -1.63009e-09 3.69995e-10 1.9029e-09 -10.2786 0.731801 -0.0259123 -1.63007e-09 3.69998e-10 1.90289e-09 -2.22167 -0.733487 0.20892 -2.03217e-16 0.0 -3.88251e-19 3.66836 -27.6593 11.8184 -0.00821921 12.4039 0.318986 -5.12297 -22.9724 -10.7327 2.03217e-16 0.0 3.88251e-19 -1.39409 -24.533 -10.1554 0.013444 6.61758 -0.0837067 1.1509 -5.08499 4.51876
52.9313 83.0723 186.663 181.623 0.424 -157.182 -5.9527 -30.5887 -1.96555 2.86021 13.948 -0.0323551 -1.37252 16.4169 -4.5981 7.316 -47.2185 -5.64604 -0.0 0.0 0.0 -0.0 0.0 0.0 6.73901e-14 3.35448e-13 4.58261e-14 89.2404 10.7024 -0.43528 -14.084 -6.8232 25.9572 -0.0101017 2.79947 0.393772 -8.76667e-10 2.44378e-09 -2.99523e-09 -1.52542e-09 4.22921e-09 -5.17565e-09 -8.76658e-10 2.44378e-09 -2.99524e-09 7.73091 5.47488 0.417314 -8.76668e-10 2.44378e-09 -2.99523e-09 2.90554 0.965183 0.102902 -8.76658e-10 2.44378e-09 -2.99523e-09 10.2786 0.731801 0.0259123 -8.76666e-10 2.44378e-09 -2.99522e-09 2.22167 -0.733487 -0.20892 6.74463e-14 3.35449e-13 4.57236e-14 -81.2967 19.3608 -5.76487 9.21127 -3.60258 -16.3966 0.220141 12.878 -1.84318 -2.81667e-09 1.90922e-10 2.87653e-09 -4.83734e-09 3.51546e-10 4.99921e-09 -2.81668e-09 1.90917e-10 2.87653e-09 -7.73091 5.47488 -0.417314 -2.81667e-09 1.90915e-10 2.87652e-09 -2.90554 0.965183 -0.102902 -2.81668e-09 1.90915e-10 2.87652e-09 -10.2786 0.731801 -0.0259123 -2.81667e-09 1.90917e-10 2.87652e-09 -2.22167 -0.733487 0.20892 -2.03217e-16 0.0 -3.88251e-19 3.88693 -27.994 13.5048 -0.0114875 13.5666 0.35068 -5.71816 -21.5405 -12.5408 2.03217e-16 0.0 3.88251e-19 -1.87878 -24.7944 -10.2739 0.0139437 6.94306 -0.087532 1.12957 -5.10142 4.37966
